# xmcd
#
# Track frame offsets: 
#        150
#        17189
#        34625
#        49312
#        68755
#        85498
#        98811
#        114785
#        141075
#        160110
#
# Disc length: 2372 seconds
#
# Revision: 0
# Processed by: cddbd v1.5.2PL0 Copyright (c) Steve Scherf et al.
# Submitted via: ExactAudioCopyFreeDBPlugin 1.0
#
DISCID=7b09420a
DTITLE=American Scarecrows - Yesteryear
DYEAR=2014
DGENRE=Country
TTITLE0=The Peak
TTITLE1=Cheshire
TTITLE2=North Country
TTITLE3=Gods Of The West
TTITLE4=All She Can Say
TTITLE5=Devil On My Shoulder
TTITLE6=Dreamers
TTITLE7=300 Flowers
TTITLE8=The Uncertainty
TTITLE9=Outskirts (Buried In The Sound)
EXTD=
EXTT0=
EXTT1=
EXTT2=
EXTT3=
EXTT4=
EXTT5=
EXTT6=
EXTT7=
EXTT8=
EXTT9=
PLAYORDER=
